<?xml version="1.0" standalone="no"?>
<!DOCTYPE svg PUBLIC "-//W3C//DTD SVG 20010904//EN"
 "http://www.w3.org/TR/2001/REC-SVG-20010904/DTD/svg10.dtd">
<svg version="1.0" xmlns="http://www.w3.org/2000/svg"
 width="260.000000pt" height="260.000000pt" viewBox="0 0 260.000000 260.000000"
 preserveAspectRatio="xMidYMid meet">
<metadata>
Created by potrace 1.11, written by Peter Selinger 2001-2013
</metadata>
<g transform="translate(0.000000,260.000000) scale(0.100000,-0.100000)"
fill="#000000" stroke="none">
<path d="M1075 2584 c-113 -20 -249 -65 -356 -119 -105 -52 -156 -86 -250
-162 l-66 -53 -177 0 c-174 0 -177 0 -201 -25 -32 -31 -32 -69 0 -100 23 -24
31 -25 133 -25 l109 0 -62 -95 c-205 -310 -261 -722 -150 -1090 31 -104 119
-280 186 -375 117 -166 327 -340 510 -424 425 -193 931 -145 1307 124 l83 60
205 0 c204 0 205 0 229 25 33 33 32 70 -4 106 -29 29 -30 29 -150 29 l-120 0
60 82 c273 379 317 894 113 1324 -149 314 -446 572 -780 677 -178 56 -437 73
-619 41z m1082 -746 c54 -36 77 -86 77 -174 1 -62 -3 -77 -30 -120 -28 -46
-33 -49 -70 -48 -21 1 -52 7 -68 13 l-28 11 35 40 c82 90 52 242 -47 242 -175
0 -292 -388 -195 -647 27 -73 80 -132 124 -141 40 -7 97 17 120 52 28 43 47
141 40 205 -7 59 -7 59 19 59 15 0 42 -6 60 -14 42 -17 45 -36 38 -239 -5
-163 -7 -166 -74 -182 l-28 -7 0 60 c0 71 -10 82 -33 42 -27 -46 -76 -70 -141
-70 -68 0 -115 22 -167 77 -81 84 -113 190 -113 368 0 114 3 140 27 210 45
135 115 225 216 277 57 29 184 22 238 -14z m-976 -61 c22 -67 88 -226 241
-584 11 -25 13 -19 19 67 4 52 7 191 8 308 l1 214 33 32 c28 29 100 56 113 43
2 -2 -3 -17 -11 -34 -27 -54 -33 -132 -39 -498 -6 -357 -6 -360 -29 -378 -30
-23 -67 -32 -86 -20 -9 6 -51 97 -93 204 -43 107 -103 255 -135 329 -54 127
-57 133 -66 105 -5 -17 -10 -133 -11 -260 0 -209 1 -236 21 -292 19 -58 20
-63 4 -77 -10 -9 -32 -19 -49 -22 -83 -17 -98 62 -83 435 6 147 11 311 11 364
l0 96 43 25 c69 42 78 37 108 -57z m-521 -94 c0 -10 -7 -43 -15 -73 -8 -30
-13 -55 -12 -56 1 -1 26 -4 54 -8 51 -6 53 -6 59 21 28 122 30 128 53 131 13
2 34 1 46 -2 l24 -6 -20 -71 c-11 -39 -18 -74 -15 -76 3 -3 25 -8 51 -10 47
-6 54 -17 35 -54 -8 -15 -21 -19 -59 -19 l-49 0 -12 -52 c-6 -29 -14 -61 -17
-70 -4 -16 3 -18 52 -18 55 0 57 -1 51 -22 -3 -13 -6 -31 -6 -40 0 -15 -10
-18 -59 -18 l-58 0 -12 -73 c-7 -40 -9 -80 -6 -89 8 -20 -20 -31 -46 -18 -25
14 -33 49 -26 121 l5 59 -58 0 -59 0 -7 -45 c-3 -25 -4 -64 0 -85 6 -38 5 -40
-19 -40 -44 0 -65 32 -65 100 l0 60 -55 0 c-59 0 -64 6 -45 54 7 21 16 26 42
26 65 0 76 8 87 61 19 86 19 86 -44 81 -54 -4 -55 -4 -55 22 0 38 30 62 88 70
l51 7 12 57 c18 85 24 92 69 92 31 0 40 -4 40 -17z"/>
<path d="M605 1448 c-7 -20 -24 -102 -25 -115 0 -9 18 -13 58 -13 l58 0 12 58
c7 32 12 64 12 70 0 17 -109 16 -115 0z"/>
</g>
</svg>
